<svg xmlns="http://www.w3.org/2000/svg" viewBox="0 0 122.8 122.8" width="24" height="24">
  <path fill="#36C5F0" d="M30.3 78.4c0 8.4-6.8 15.2-15.2 15.2S0 86.8 0 78.4s6.8-15.2 15.2-15.2h15.2v15.2z"/>
  <path fill="#36C5F0" d="M37.9 78.4c0-8.4 6.8-15.2 15.2-15.2s15.2 6.8 15.2 15.2v38.1c0 8.4-6.8 15.2-15.2 15.2s-15.2-6.8-15.2-15.2V78.4z"/>

  <path fill="#2EB67D" d="M44.7 30.3c-8.4 0-15.2-6.8-15.2-15.2S36.3 0 44.7 0s15.2 6.8 15.2 15.2v15.2H44.7z"/>
  <path fill="#2EB67D" d="M44.7 37.9c8.4 0 15.2 6.8 15.2 15.2s-6.8 15.2-15.2 15.2H6.6c-8.4 0-15.2-6.8-15.2-15.2s6.8-15.2 15.2-15.2h38.1z"/>

  <path fill="#ECB22E" d="M92.5 44.7c0-8.4 6.8-15.2 15.2-15.2s15.2 6.8 15.2 15.2-6.8 15.2-15.2 15.2H92.5V44.7z"/>
  <path fill="#ECB22E" d="M84.9 44.7c0 8.4-6.8 15.2-15.2 15.2s-15.2-6.8-15.2-15.2V6.6C54.5-1.8 61.3-8.6 69.7-8.6s15.2 6.8 15.2 15.2v38.1z"/>

  <path fill="#E01E5A" d="M78.1 92.5c8.4 0 15.2 6.8 15.2 15.2s-6.8 15.2-15.2 15.2-15.2-6.8-15.2-15.2V92.5h15.2z"/>
  <path fill="#E01E5A" d="M78.1 84.9c-8.4 0-15.2-6.8-15.2-15.2s6.8-15.2 15.2-15.2h38.1c8.4 0 15.2 6.8 15.2 15.2s-6.8 15.2-15.2 15.2H78.1z"/>
</svg>
